<svg width="40" height="40" viewBox="0 0 40 40" fill="none" xmlns="http://www.w3.org/2000/svg">
<g filter="url(#filter0_i_2681_7426)">
<rect width="40" height="40" rx="12" fill="url(#paint0_linear_2681_7426)"/>
</g>
<path fill-rule="evenodd" clip-rule="evenodd" d="M12.0842 16.6677C12.656 16.6133 13.878 16.5741 15.4012 16.5488L15.4027 16.5492C15.41 16.5491 15.4172 16.549 15.4245 16.5488L24.7188 16.5606C23.35 16.534 21.7181 16.5201 20.0786 16.5176C18.4451 16.515 16.8102 16.5263 15.4245 16.5488L15.4012 16.5488L15.4026 16.5475L11.8641 16.5437C11.8514 16.5367 11.8386 16.5293 11.8258 16.5219C11.8039 16.5094 11.7819 16.4967 11.7604 16.4856L11.7604 16.4868C11.6971 16.4527 11.6174 16.478 11.5845 16.5412L11.5833 16.5437L11.8641 16.5437C11.8865 16.5563 11.909 16.5688 11.9317 16.5813C11.9819 16.6091 12.0328 16.6372 12.0842 16.6677ZM7.60959 20.4263L7.60979 20.4275L7.60819 20.425C7.70813 21.0171 7.81946 21.6774 7.70433 22.3504C7.6512 22.6604 7.61831 23.0298 7.61831 23.4194C7.61831 23.9166 7.67271 24.4454 7.8106 24.9186C7.81313 24.9249 7.81566 24.9325 7.81693 24.9388C7.85867 25.0817 7.90928 25.2184 7.96747 25.3487C8.21289 25.8964 8.6114 26.3152 9.22242 26.4202C9.32237 26.4379 9.42863 26.4468 9.54122 26.4468C9.71582 26.4468 10.0599 26.4784 10.49 26.5189C11.053 26.572 11.7678 26.639 12.4281 26.6656C12.437 26.6643 12.4458 26.6631 12.4547 26.6631C12.4673 26.6631 12.48 26.6643 12.4914 26.6681C13.3959 26.701 14.1853 26.6542 14.3181 26.386C14.9001 25.2133 17.5276 25.255 19.1495 25.2816C19.3481 25.2854 19.5303 25.2879 19.7327 25.2879C19.8784 25.2879 20.0148 25.2859 20.1559 25.2839C20.2095 25.2831 20.2639 25.2823 20.3197 25.2816L20.3244 25.2815C22.0242 25.2562 25.0036 25.2119 25.5863 26.386C25.7191 26.6542 26.5085 26.701 27.413 26.6681C27.4244 26.6643 27.4371 26.6631 27.4497 26.6631C27.4586 26.6631 27.4674 26.6643 27.4763 26.6656C28.1367 26.6378 28.8514 26.572 29.4144 26.5189C29.445 26.5161 29.4751 26.5133 29.5049 26.5106C29.8916 26.4751 30.2011 26.4468 30.3632 26.4468C30.4758 26.4468 30.582 26.4379 30.682 26.4202C31.293 26.3152 31.6915 25.8977 31.9369 25.3487C31.9951 25.2184 32.0457 25.0817 32.0875 24.9388C32.0887 24.9325 32.09 24.9261 32.0925 24.9198C32.2304 24.4467 32.2848 23.9179 32.2848 23.4207C32.2848 23.0311 32.2519 22.6617 32.1988 22.3517C32.083 21.6819 32.1939 21.0247 32.2935 20.4348L32.295 20.4263L32.2959 20.4204C32.3765 19.942 32.449 19.5115 32.381 19.1776C32.1748 18.1656 31.2778 17.7797 29.6598 17.084L29.5118 17.0207C29.4814 17.0068 29.4574 16.9828 29.4448 16.9549L29.3916 16.8575L29.3385 16.7576C29.3334 16.75 29.3296 16.7424 29.3271 16.7348C29.3018 16.6678 29.336 16.5918 29.403 16.5665C30.1279 16.2933 30.5871 16.4337 30.873 16.521C30.9401 16.5425 30.9957 16.559 31.0375 16.564C31.1551 16.5779 31.2753 16.5691 31.3892 16.5412C31.5587 16.4995 31.7156 16.416 31.8345 16.3047C31.9483 16.1984 32.0255 16.0668 32.042 15.9214C32.0495 15.8594 32.0457 15.7936 32.0293 15.7265C31.9876 15.5532 31.9268 15.4052 31.8509 15.2812C31.7244 15.0763 31.5562 14.9371 31.3601 14.865C31.1615 14.7916 30.9299 14.7853 30.6807 14.846C30.4922 14.8928 30.2949 14.9776 30.0925 15.1003L30.0879 15.1026C30.0814 15.106 30.0743 15.1097 30.0672 15.1117C30.0622 15.1129 30.0382 15.1455 29.9985 15.1994C29.9565 15.2563 29.8971 15.3369 29.8243 15.4292C29.5789 15.7392 29.2727 16.1377 29.2537 16.168C29.2335 16.2009 29.2019 16.2211 29.1664 16.2275H29.1639L29.1589 16.2281L29.1538 16.2287C29.1272 16.2313 29.0994 16.2249 29.0741 16.2098C29.0513 16.1958 29.0349 16.1769 29.0248 16.1541C28.8805 15.8657 28.7528 15.6013 28.6262 15.3394C27.8356 13.6986 27.1044 12.1843 25.6647 11.5188C24.5358 10.9966 21.777 10.9989 20.2171 11.0001L20.2035 11.0001C20.0393 11.0008 20.0876 11.0011 20.1101 11.0013C20.1298 11.0014 20.1298 11.0014 19.9517 11.0014C19.7503 11.0014 19.7767 11.0011 19.8017 11.0007C19.8241 11.0004 19.8454 11.0001 19.7 11.0001L19.6864 11.0001C18.1267 10.9989 15.3677 10.9966 14.2388 11.5188C12.7991 12.1843 12.0679 13.6999 11.2772 15.3394C11.2645 15.3657 11.2517 15.392 11.2389 15.4184C11.111 15.6824 10.9817 15.9494 10.8471 16.2173C10.8155 16.2819 10.7371 16.3084 10.6725 16.2755C10.6371 16.2566 10.6131 16.2237 10.6042 16.187L10.0539 15.4937C9.97317 15.3926 9.90879 15.3051 9.86575 15.2467C9.83125 15.1998 9.81047 15.1716 9.80597 15.1699C9.79711 15.1673 9.78826 15.1635 9.78067 15.1585C9.57826 15.0345 9.38091 14.9497 9.19241 14.9042C8.94443 14.8435 8.71293 14.8498 8.51305 14.9232C8.31571 14.9953 8.14745 15.1332 8.02221 15.3394C7.94631 15.4634 7.88558 15.6127 7.84384 15.7847C7.82739 15.8518 7.82359 15.9163 7.83119 15.9795C7.84889 16.125 7.92606 16.2566 8.03866 16.3629C8.15758 16.4754 8.31444 16.5577 8.48396 16.5994C8.5978 16.6273 8.71799 16.6361 8.83564 16.6222C8.87327 16.6176 8.92221 16.6028 8.9806 16.5851C8.98699 16.5831 8.99349 16.5812 9.0001 16.5792C9.28474 16.4919 9.74141 16.3527 10.4613 16.6222C10.4701 16.6247 10.479 16.6285 10.4866 16.6323C10.5498 16.6665 10.5738 16.7462 10.5397 16.8094L10.46 16.9562C10.4473 16.9853 10.4233 17.0093 10.3929 17.022L10.2449 17.0852C8.62819 17.781 7.72997 18.1681 7.52377 19.1789C7.45551 19.5139 7.5287 19.9473 7.60959 20.4263ZM12.2943 23.7889C12.3993 23.9003 12.4651 24.0495 12.4651 24.2102H12.4638C12.4638 24.2165 12.4638 24.2266 12.4625 24.2418C12.4537 24.3924 12.3892 24.5252 12.288 24.6214C12.1868 24.7175 12.0501 24.7757 11.8996 24.7757C11.8933 24.7757 11.8832 24.7757 11.868 24.7744L10.4233 24.696C10.2626 24.6871 10.1171 24.6138 10.0121 24.5024C9.90713 24.3911 9.84135 24.2418 9.84135 24.0812C9.84135 24.0748 9.84135 24.0647 9.84261 24.0495C9.85147 23.899 9.91599 23.7662 10.0172 23.67C10.1184 23.5739 10.255 23.5157 10.4056 23.5157C10.4119 23.5157 10.422 23.5157 10.4372 23.5169H10.4397L11.8832 23.5954C12.0438 23.6042 12.1893 23.6776 12.2943 23.7889ZM25.0942 21.9622C25.0992 22.0014 25.103 22.0419 25.103 22.0824C25.103 22.2898 25.0207 22.4644 24.8879 22.5972C24.75 22.7351 24.5552 22.8262 24.3452 22.8578C22.8829 23.078 21.4179 23.1931 19.9517 23.1956C18.4869 23.1969 17.0219 23.0868 15.557 22.8566C15.3469 22.8237 15.1521 22.7326 15.0142 22.5947C14.8827 22.4631 14.8004 22.2898 14.8004 22.0824C14.8004 22.0431 14.803 22.0027 14.8093 21.9622C14.8359 21.7888 14.9194 21.6256 15.0383 21.5055C15.1622 21.3802 15.3242 21.3005 15.5038 21.3005C15.5354 21.3005 15.5658 21.3031 15.5974 21.3081C17.0484 21.532 18.4994 21.6434 19.9504 21.6434C21.4027 21.6434 22.855 21.532 24.3073 21.3081C24.3389 21.3031 24.3693 21.3005 24.3996 21.3005C24.5793 21.3005 24.7412 21.3802 24.8652 21.5055C24.9841 21.6256 25.0676 21.7889 25.0942 21.9622ZM30.0597 24.0495C30.061 24.0635 30.061 24.0748 30.061 24.0812C30.061 24.2418 29.9952 24.3911 29.8902 24.5025C29.7852 24.6138 29.6397 24.6872 29.4791 24.696L28.0344 24.7744C28.0204 24.7757 28.0091 24.7757 28.0027 24.7757C27.8522 24.7757 27.7156 24.7175 27.6144 24.6214C27.5131 24.5265 27.4486 24.3924 27.4398 24.2418C27.4385 24.2279 27.4385 24.2165 27.4385 24.2102C27.4385 24.0495 27.5043 23.9003 27.6093 23.7889C27.7143 23.6776 27.8598 23.6042 28.0204 23.5954L29.4651 23.5169C29.479 23.5157 29.4904 23.5157 29.4968 23.5157C29.6473 23.5157 29.7839 23.5739 29.8851 23.67C29.9863 23.7649 30.0509 23.899 30.0597 24.0495ZM27.3272 20.205C27.3436 20.1886 27.3651 20.1759 27.3891 20.1696L27.3902 20.1671L30.7515 19.3271C30.7958 19.3169 30.8426 19.3283 30.8768 19.3625C31.1741 19.6648 31.2626 20.0178 31.1412 20.4201C31.0273 20.7971 30.7262 21.2133 30.2329 21.6712C30.2113 21.6927 30.1835 21.7054 30.1506 21.7079L26.811 21.9293C26.7579 21.9318 26.706 21.9028 26.6832 21.8509C26.5643 21.5802 26.5795 21.3018 26.7047 21.0172C26.8211 20.7503 27.0362 20.4796 27.3272 20.205ZM11.568 16.626V16.602L11.5664 16.601V16.5946V16.5769L11.5702 16.5693L11.5715 16.5655C11.5724 16.5634 11.5731 16.5613 11.5738 16.5592C11.5752 16.555 11.5766 16.5508 11.5791 16.5466C11.7347 16.2265 11.8789 15.8963 12.0231 15.5649C12.6228 14.1908 13.2275 12.8081 14.5925 12.1579C15.6989 11.6312 17.9529 11.6467 19.4218 11.6569L19.429 11.6569L19.4471 11.6571C19.5897 11.6583 19.7268 11.6594 19.9477 11.6594C20.1687 11.6594 20.3058 11.6583 20.4484 11.6571L20.4664 11.6569C21.9341 11.6455 24.1934 11.6304 25.3029 12.1579C26.6894 12.8182 27.3258 14.249 27.9482 15.6494L27.9696 15.6974C28.0988 15.987 28.2282 16.2757 28.3695 16.5666L24.7147 16.5628C26.1645 16.5906 27.3195 16.6324 27.8711 16.688C27.8629 16.6931 27.8543 16.6984 27.8458 16.7038C27.8373 16.7092 27.8287 16.7146 27.8205 16.7196L28.3404 16.7209L28.3354 16.726L28.3278 16.731L28.3151 16.7374C28.0368 16.8841 27.7269 17.0776 27.4359 17.2737C27.0817 17.5128 26.7604 17.7557 26.5592 17.9252C26.5048 17.972 26.4226 17.9645 26.3758 17.9101C26.329 17.8557 26.3366 17.7734 26.391 17.7266C26.5984 17.5508 26.9286 17.3016 27.2892 17.0574C27.4625 16.941 27.6434 16.8259 27.8217 16.7184L12.0829 16.669C12.2764 16.7841 12.475 16.9106 12.6635 17.0384C13.0228 17.2826 13.3543 17.5318 13.5617 17.7076C13.6161 17.7532 13.6237 17.8367 13.5769 17.8911C13.5314 17.9455 13.4479 17.9531 13.3935 17.9062C13.1923 17.7367 12.871 17.4938 12.5168 17.2547C12.2271 17.0587 11.9159 16.8651 11.6376 16.7184L11.6363 16.7171L11.6325 16.7146L11.6148 16.7057L11.5946 16.6855L11.592 16.6804L11.5895 16.6766L11.587 16.6728C11.5857 16.6697 11.5841 16.6668 11.5825 16.664C11.581 16.6611 11.5794 16.6583 11.5781 16.6551L11.5731 16.645L11.5717 16.6405L11.5705 16.6361L11.5693 16.6323V16.6298L11.568 16.626ZM28.3695 16.5666L28.3416 16.7184L28.3492 16.7095L28.3543 16.7045L28.3555 16.7019C28.3581 16.6994 28.3593 16.6969 28.3606 16.6943C28.3644 16.6893 28.3669 16.683 28.3695 16.6779L28.3745 16.6678C28.3758 16.6652 28.377 16.6615 28.377 16.6589L28.3783 16.6564L28.3821 16.6311V16.6286V16.6184V16.6121C28.3817 16.61 28.3814 16.6079 28.3811 16.6058C28.3806 16.6016 28.38 16.5974 28.3783 16.5931C28.3758 16.5843 28.3733 16.5767 28.3695 16.5678V16.5666ZM9.67164 21.6724C9.17824 21.2144 8.8759 20.797 8.76331 20.4212L8.76564 20.4238C8.6442 20.0215 8.73275 19.6685 9.03005 19.3662C9.06294 19.332 9.11101 19.3206 9.15402 19.3308L12.5154 20.1708C12.5394 20.1771 12.5609 20.1898 12.5773 20.2062C12.8683 20.4807 13.0834 20.7514 13.1998 21.0184C13.3237 21.303 13.3389 21.5813 13.2213 21.852C13.1985 21.9039 13.1466 21.9343 13.0935 21.9305L9.75387 21.7091C9.72224 21.7066 9.69314 21.6939 9.67164 21.6724ZM20.4423 11.9153C20.306 11.9164 20.1779 11.9175 20.0809 11.9175L20.4423 11.9153ZM19.0245 12.578C19.0245 12.5629 19.0308 12.5477 19.0409 12.5376C19.0511 12.5274 19.0662 12.5211 19.0814 12.5211H20.8222C20.8373 12.5211 20.8525 12.5274 20.8626 12.5376L20.8664 12.5413C20.874 12.5515 20.8791 12.5641 20.8791 12.578V13.2207C20.8791 13.2371 20.8728 13.2511 20.8626 13.2612C20.8525 13.2713 20.8386 13.2776 20.8222 13.2776H19.0814C19.065 13.2776 19.0511 13.2713 19.0409 13.2612C19.0308 13.2511 19.0245 13.2371 19.0245 13.2207V12.578ZM31.7487 28.4763H32.8911H32.8924C33.0366 28.4763 33.1542 28.5939 33.1542 28.7381C33.1542 28.8824 33.0366 29 32.8924 29H7.26187C7.11765 29 7 28.8824 7 28.7381C7 28.5939 7.11765 28.4763 7.26187 28.4763H8.15627C8.09681 28.4472 8.04241 28.4105 7.99561 28.3637C7.88808 28.2561 7.82103 28.1081 7.82103 27.9449V25.64C8.10567 26.1725 8.54084 26.5685 9.17971 26.6786C9.29484 26.6988 9.41628 26.7089 9.54279 26.7089C9.71339 26.7089 10.0444 26.74 10.4569 26.7788L10.4676 26.7798L10.4768 26.7806C11.0154 26.8311 11.6844 26.8938 12.3247 26.9177V27.9449C12.3247 28.1081 12.2577 28.2561 12.1501 28.3637C12.1033 28.4105 12.0489 28.4472 11.9895 28.4763H27.9155C27.8561 28.4472 27.8017 28.4105 27.7549 28.3637C27.6473 28.2561 27.5803 28.1081 27.5803 27.9449V26.9177C28.2198 26.8938 28.8854 26.8315 29.4231 26.7811L29.4374 26.7798L29.4405 26.7795C29.8553 26.7404 30.1893 26.7089 30.3622 26.7089C30.4887 26.7089 30.6102 26.6988 30.7253 26.6786C31.3641 26.5685 31.7993 26.1725 32.084 25.64V27.9449C32.084 28.1081 32.0169 28.2561 31.9094 28.3637C31.8626 28.4105 31.8082 28.4472 31.7487 28.4763Z" fill="white"/>
<defs>
<filter id="filter0_i_2681_7426" x="0" y="-2" width="40" height="42" filterUnits="userSpaceOnUse" color-interpolation-filters="sRGB">
<feFlood flood-opacity="0" result="BackgroundImageFix"/>
<feBlend mode="normal" in="SourceGraphic" in2="BackgroundImageFix" result="shape"/>
<feColorMatrix in="SourceAlpha" type="matrix" values="0 0 0 0 0 0 0 0 0 0 0 0 0 0 0 0 0 0 127 0" result="hardAlpha"/>
<feOffset dy="-2"/>
<feGaussianBlur stdDeviation="2"/>
<feComposite in2="hardAlpha" operator="arithmetic" k2="-1" k3="1"/>
<feColorMatrix type="matrix" values="0 0 0 0 0 0 0 0 0 0 0 0 0 0 0 0 0 0 0.25 0"/>
<feBlend mode="normal" in2="shape" result="effect1_innerShadow_2681_7426"/>
</filter>
<linearGradient id="paint0_linear_2681_7426" x1="4.49649" y1="7.40999e-07" x2="35.5035" y2="40" gradientUnits="userSpaceOnUse">
<stop stop-color="white"/>
<stop offset="0.334" stop-color="#0099D8"/>
<stop offset="1" stop-color="#004663"/>
</linearGradient>
</defs>
</svg>
