<svg width="40" height="40" viewBox="0 0 40 40" fill="none" xmlns="http://www.w3.org/2000/svg">
<g filter="url(#filter0_i_2681_7415)">
<rect width="40" height="40" rx="12" fill="url(#paint0_linear_2681_7415)"/>
</g>
<path d="M30 13C30 14.6568 28.6569 16 27 16C25.3431 16 24 14.6568 24 13C24 11.3432 25.3431 10 27 10C28.6569 10 30 11.3432 30 13Z" fill="#B72D88"/>
<path opacity="0.5" d="M23.6361 10.011C23.0111 10 22.3051 10 21.5 10H18.5C15.2266 10 13.5898 10 12.3875 10.7368C11.7147 11.1491 11.1491 11.7147 10.7368 12.3875C10 13.5898 10 15.2266 10 18.5V19.5C10 21.8297 10 22.9946 10.3806 23.9134C10.8881 25.1386 11.8614 26.1119 13.0866 26.6194C13.7469 26.8929 14.5342 26.9698 15.7896 26.9915C16.6399 27.0061 17.0651 27.0134 17.4028 27.2098C17.7405 27.4063 17.9507 27.7614 18.3712 28.4718L18.9133 29.3877C19.3965 30.204 20.6035 30.204 21.0867 29.3877L21.6288 28.4718C22.0492 27.7614 22.2595 27.4062 22.5972 27.2098C22.9349 27.0134 23.36 27.0061 24.2104 26.9915C25.4658 26.9698 26.2531 26.8929 26.9134 26.6194C28.1386 26.1119 29.1119 25.1386 29.6194 23.9134C30 22.9946 30 21.8297 30 19.5V18.5C30 17.6949 30 16.9889 29.989 16.3639C29.1942 17.0707 28.1473 17.5 27 17.5C24.5147 17.5 22.5 15.4853 22.5 13C22.5 11.8527 22.9293 10.8058 23.6361 10.011Z" fill="#D24C8B"/>
<path fill-rule="evenodd" clip-rule="evenodd" d="M21.0867 29.2343L21.6288 28.3185C22.0492 27.6081 22.2595 27.2529 22.5972 27.0565C22.9349 26.8601 23.36 26.8527 24.2104 26.8381C25.4658 26.8164 26.2531 26.7395 26.9134 26.466C28.1386 25.9586 29.1119 24.9852 29.6194 23.76C29.8463 23.2123 29.9379 22.5772 29.9749 21.66C28.4809 22.4189 26.7904 22.8466 25 22.8466C18.9249 22.8466 14 17.9218 14 11.8466C14 11.2173 14.0528 10.6004 14.1543 10C13.4391 10.1054 12.8773 10.2833 12.3875 10.5834C11.7147 10.9957 11.1491 11.5614 10.7368 12.2341C10 13.4365 10 15.0732 10 18.3466V19.3466C10 21.6763 10 22.8412 10.3806 23.76C10.8881 24.9852 11.8614 25.9586 13.0866 26.466C13.7469 26.7395 14.5342 26.8164 15.7896 26.8381C16.6399 26.8527 17.0651 26.8601 17.4028 27.0565C17.7405 27.2529 17.9507 27.6081 18.3712 28.3185L18.9133 29.2343C19.3965 30.0506 20.6035 30.0506 21.0867 29.2343Z" fill="#D24C8B"/>
<defs>
<filter id="filter0_i_2681_7415" x="0" y="-2" width="40" height="42" filterUnits="userSpaceOnUse" color-interpolation-filters="sRGB">
<feFlood flood-opacity="0" result="BackgroundImageFix"/>
<feBlend mode="normal" in="SourceGraphic" in2="BackgroundImageFix" result="shape"/>
<feColorMatrix in="SourceAlpha" type="matrix" values="0 0 0 0 0 0 0 0 0 0 0 0 0 0 0 0 0 0 127 0" result="hardAlpha"/>
<feOffset dy="-2"/>
<feGaussianBlur stdDeviation="2"/>
<feComposite in2="hardAlpha" operator="arithmetic" k2="-1" k3="1"/>
<feColorMatrix type="matrix" values="0 0 0 0 0 0 0 0 0 0 0 0 0 0 0 0 0 0 0.25 0"/>
<feBlend mode="normal" in2="shape" result="effect1_innerShadow_2681_7415"/>
</filter>
<linearGradient id="paint0_linear_2681_7415" x1="4.49649" y1="7.40999e-07" x2="35.5035" y2="40" gradientUnits="userSpaceOnUse">
<stop stop-color="white"/>
<stop offset="0.334" stop-color="#02E56B"/>
<stop offset="1" stop-color="#005728"/>
</linearGradient>
</defs>
</svg>
