<svg width="40" height="40" viewBox="0 0 40 40" fill="none" xmlns="http://www.w3.org/2000/svg">
<g filter="url(#filter0_i_2681_7395)">
<rect width="40" height="40" rx="12" fill="url(#paint0_linear_2681_7395)"/>
</g>
<path d="M27.0173 20.0371C26.8316 21.5188 26.2473 22.8736 25.3711 23.9924L28.1989 26.8272C29.7728 24.963 30.7891 22.6152 31.0017 20.0374L27.0173 20.0371Z" fill="#F500AF"/>
<path d="M19.2539 26.9194V30.957C21.8263 30.7438 24.1673 29.725 26.0269 28.1472L23.1926 25.3047C22.0745 26.1679 20.7269 26.7443 19.2539 26.9194Z" fill="#1603E7"/>
<path d="M14.2025 25.3047L11.3242 28.1901C13.1835 29.7679 15.5255 30.7867 18.098 30.9999V26.9463C16.6396 26.7539 15.3057 26.1725 14.2025 25.3047Z" fill="#07D1FA"/>
<path d="M11.0858 20.0059H7C7.2119 22.5837 8.22794 24.9315 9.80185 26.7957L12.6873 23.9021C11.837 22.7954 11.2672 21.4618 11.0858 20.0059Z" fill="#17CB32"/>
<path d="M12.6883 14.2286L9.80185 11.3359C8.22794 13.2001 7.2119 15.5477 7 18.1268H11.0858C11.2672 16.6696 11.837 15.3365 12.6883 14.2286Z" fill="#F1EE14"/>
<path d="M17.9966 11.0535V7C15.4242 7.21339 13.0832 8.23196 11.2227 9.81002L14.1009 12.6954C15.2044 11.8274 16.5383 11.2465 17.9966 11.0535Z" fill="#D20505"/>
<path d="M16.5639 22.2063C16.0901 22.2063 15.7637 21.9153 15.7637 21.4995C15.7637 21.3281 15.8111 21.1306 15.9321 20.7824L17.5221 16.1835C17.8064 15.3417 18.2171 15.0039 18.9752 15.0039C19.7333 15.0039 20.1335 15.3365 20.423 16.1835L22.0077 20.7824C22.1025 21.0734 22.1499 21.2813 22.1499 21.4632C22.1499 21.9153 21.8235 22.2063 21.3233 22.2063C20.86 22.2063 20.5915 21.9568 20.4178 21.3696L20.144 20.5226H17.7274L17.4484 21.3696C17.2747 21.9724 17.0272 22.2063 16.5639 22.2063ZM18.0855 19.2806H19.7912L18.9857 16.594H18.9015L18.0855 19.2806Z" fill="#F2F2F2"/>
<path d="M21.7875 14.1418L22.3366 13.7101L20.6162 11.5083C20.1407 10.8997 20.2473 10.0206 20.8542 9.54447C21.4607 9.06826 22.3376 9.17509 22.8126 9.78305L24.5337 11.9855L25.0828 11.5539C25.3863 11.316 25.825 11.3695 26.0621 11.6732C26.2999 11.9774 26.2467 12.4167 25.9431 12.6551L25.3942 13.0868L27.545 15.8397C27.7824 16.1435 27.9456 16.7018 27.9094 17.0864L27.879 17.4097L27.6598 18.2544L26.789 18.2659L26.4682 18.2181C26.0875 18.1612 25.5858 17.8687 25.3478 17.5642L23.1972 14.8114L22.6482 15.2425C22.3446 15.4809 21.9064 15.4275 21.6685 15.1232C21.4309 14.8195 21.4842 14.3797 21.7875 14.1418ZM25.8975 17.1333C26.0255 17.2971 26.3653 17.4957 26.5709 17.5264L26.5949 17.5298L27.2129 17.045L27.2153 17.0208C27.2344 16.8133 27.1242 16.4346 26.9956 16.2707L24.8447 13.5178L23.7466 14.3805L25.8975 17.1333Z" fill="white"/>
<defs>
<filter id="filter0_i_2681_7395" x="0" y="-2" width="40" height="42" filterUnits="userSpaceOnUse" color-interpolation-filters="sRGB">
<feFlood flood-opacity="0" result="BackgroundImageFix"/>
<feBlend mode="normal" in="SourceGraphic" in2="BackgroundImageFix" result="shape"/>
<feColorMatrix in="SourceAlpha" type="matrix" values="0 0 0 0 0 0 0 0 0 0 0 0 0 0 0 0 0 0 127 0" result="hardAlpha"/>
<feOffset dy="-2"/>
<feGaussianBlur stdDeviation="2"/>
<feComposite in2="hardAlpha" operator="arithmetic" k2="-1" k3="1"/>
<feColorMatrix type="matrix" values="0 0 0 0 0 0 0 0 0 0 0 0 0 0 0 0 0 0 0.25 0"/>
<feBlend mode="normal" in2="shape" result="effect1_innerShadow_2681_7395"/>
</filter>
<linearGradient id="paint0_linear_2681_7395" x1="9.28619" y1="-2.51245e-07" x2="30.7138" y2="40" gradientUnits="userSpaceOnUse">
<stop stop-color="#D075F8"/>
<stop offset="0.304" stop-color="#B514FC"/>
<stop offset="1" stop-color="#3B0553"/>
</linearGradient>
</defs>
</svg>
