<svg width="41" height="41" viewBox="0 0 41 41" fill="none" xmlns="http://www.w3.org/2000/svg">
<g filter="url(#filter0_i_2681_7440)">
<rect width="41" height="41" rx="12" fill="url(#paint0_linear_2681_7440)"/>
</g>
<g clip-path="url(#clip0_2681_7440)">
<path d="M21.0044 29.2077C21.0044 29.2077 20.509 23.8883 26.3904 22.0713C32.2718 20.2538 32.0403 18.5684 32.0403 18.5684C32.0403 18.5684 33.1013 22.7323 28.8044 23.5223C21.0729 24.9433 21.0044 29.2077 21.0044 29.2077Z" fill="url(#paint1_linear_2681_7440)"/>
<path d="M32.155 19.5996C32.0479 20.0711 31.3079 21.4921 26.4161 23.0031C22.2881 24.2796 21.2441 27.248 20.9941 28.972C20.9962 29.1245 21.0042 29.2085 21.0042 29.2085C21.0042 29.2085 21.0727 24.9441 28.8046 23.523C31.7275 22.9855 32.1705 20.8876 32.155 19.5996Z" fill="url(#paint2_linear_2681_7440)"/>
<path d="M21.0021 29.5644C21.0021 29.5644 20.6182 25.4494 25.1681 24.0429C29.7181 22.6375 29.5396 21.334 29.5396 21.334C29.5396 21.334 30.3596 24.5544 27.0361 25.1649C21.0557 26.2645 21.0021 29.5644 21.0021 29.5644Z" fill="url(#paint3_linear_2681_7440)"/>
<path d="M29.628 22.1328C29.545 22.4973 28.9725 23.5958 25.1886 24.7648C21.9951 25.7523 21.1881 28.0488 20.9941 29.3817C20.9957 29.4987 21.0021 29.5653 21.0021 29.5653C21.0021 29.5653 21.0556 26.2653 27.0361 25.1658C29.297 24.7508 29.64 23.1278 29.628 22.1328Z" fill="url(#paint4_linear_2681_7440)"/>
<path d="M20.9982 29.7503C20.9982 29.7503 20.7092 26.6388 24.1486 25.5753C27.5885 24.5129 27.4535 23.5273 27.4535 23.5273C27.4535 23.5273 28.074 25.9618 25.5611 26.4238C21.0392 27.2553 20.9982 29.7503 20.9982 29.7503Z" fill="url(#paint5_linear_2681_7440)"/>
<path d="M27.5221 24.1309C27.4586 24.4063 27.0266 25.2374 24.1651 26.1208C21.7511 26.8668 21.1406 28.6033 20.9941 29.6108C20.9952 29.6998 20.9992 29.7493 20.9992 29.7493C20.9992 29.7493 21.0402 27.2543 25.5621 26.4234C27.2716 26.1104 27.5311 24.8829 27.5221 24.1309Z" fill="url(#paint6_linear_2681_7440)"/>
<path d="M21.0089 27.5069C21.0089 27.5069 20.2994 19.878 28.7323 17.2714C37.1657 14.667 36.8347 12.25 36.8347 12.25C36.8347 12.25 38.3557 18.2204 32.1953 19.3524C21.1078 21.3905 21.0089 27.5069 21.0089 27.5069Z" fill="url(#paint7_linear_2681_7440)"/>
<path d="M36.9979 13.7285C36.8444 14.4035 35.7824 16.4415 28.769 18.6085C22.8496 20.4375 21.3531 24.6944 20.9941 27.1659C20.9971 27.3839 21.0072 27.5059 21.0072 27.5059C21.0072 27.5059 21.1062 21.3899 32.1935 19.3515C36.3844 18.5819 37.0199 15.5729 36.9979 13.7285Z" fill="url(#paint8_linear_2681_7440)"/>
<path d="M21.0056 28.0167C21.0056 28.0167 20.4556 22.1163 26.9795 20.0998C33.5034 18.0853 33.2469 16.2148 33.2469 16.2148C33.2469 16.2148 34.4234 20.8338 29.6579 21.7098C21.0821 23.2853 21.0056 28.0167 21.0056 28.0167Z" fill="url(#paint9_linear_2681_7440)"/>
<path d="M33.3735 17.3594C33.255 17.8818 32.4335 19.4578 27.0081 21.1338C22.4302 22.5488 21.2711 25.8428 20.9941 27.7537C20.9962 27.9218 21.0046 28.0162 21.0046 28.0162C21.0046 28.0162 21.0811 23.2848 29.6575 21.7098C32.8985 21.1138 33.3905 18.7868 33.3735 17.3594Z" fill="url(#paint10_linear_2681_7440)"/>
<path d="M21.0027 28.2843C21.0027 28.2843 20.5882 23.8233 25.5192 22.2988C30.4516 20.7743 30.2586 19.3613 30.2586 19.3613C30.2586 19.3613 31.1481 22.8533 27.5451 23.5158C21.0602 24.7073 21.0027 28.2843 21.0027 28.2843Z" fill="url(#paint11_linear_2681_7440)"/>
<path d="M30.3545 20.2266C30.264 20.6211 29.6435 21.8135 25.5411 23.0801C22.0796 24.1505 21.2042 26.6405 20.9941 28.086C20.9957 28.213 21.0021 28.284 21.0021 28.284C21.0021 28.284 21.0596 24.707 27.5446 23.5156C29.9955 23.0655 30.3665 21.3056 30.3545 20.2266Z" fill="url(#paint12_linear_2681_7440)"/>
<path d="M20.9958 29.2077C20.9958 29.2077 21.4913 23.8883 15.6099 22.0713C9.72847 20.2538 9.95946 18.5684 9.95946 18.5684C9.95946 18.5684 8.89948 22.7323 13.1959 23.5223C20.9273 24.9433 20.9958 29.2077 20.9958 29.2077Z" fill="url(#paint13_linear_2681_7440)"/>
<path d="M9.84413 19.5996C9.95065 20.0711 10.6906 21.4921 15.5825 23.0031C19.711 24.2796 20.755 27.248 21.005 28.972C21.0029 29.1245 20.9949 29.2085 20.9949 29.2085C20.9949 29.2085 20.9259 24.9441 13.1945 23.523C10.2716 22.9855 9.82865 20.8876 9.84413 19.5996Z" fill="url(#paint14_linear_2681_7440)"/>
<path d="M20.9985 29.5644C20.9985 29.5644 21.382 25.4494 16.832 24.0429C12.2826 22.6375 12.4606 21.334 12.4606 21.334C12.4606 21.334 11.6406 24.5544 14.9646 25.1649C20.9455 26.2645 20.9985 29.5644 20.9985 29.5644Z" fill="url(#paint15_linear_2681_7440)"/>
<path d="M12.3714 22.1328C12.4544 22.4973 13.0269 23.5958 16.8109 24.7648C20.0043 25.7523 20.8113 28.0488 21.0053 29.3817C21.0038 29.4987 20.9973 29.5653 20.9973 29.5653C20.9973 29.5653 20.9443 26.2653 14.9634 25.1658C12.7024 24.7508 12.3589 23.1278 12.3714 22.1328Z" fill="url(#paint16_linear_2681_7440)"/>
<path d="M21.0012 29.7503C21.0012 29.7503 21.2902 26.6388 17.8508 25.5753C14.4109 24.5129 14.5463 23.5273 14.5463 23.5273C14.5463 23.5273 13.9258 25.9618 16.4388 26.4238C20.9607 27.2553 21.0012 29.7503 21.0012 29.7503Z" fill="url(#paint17_linear_2681_7440)"/>
<path d="M14.4787 24.1309C14.5417 24.4063 14.9742 25.2374 17.8357 26.1208C20.2497 26.8668 20.8602 28.6033 21.0067 29.6108C21.0056 29.6998 21.0011 29.7493 21.0011 29.7493C21.0011 29.7493 20.9606 27.2543 16.4387 26.4234C14.7292 26.1104 14.4697 24.8829 14.4787 24.1309Z" fill="url(#paint18_linear_2681_7440)"/>
<path d="M20.9916 27.5068C20.9916 27.5068 21.701 19.8779 13.2686 17.2714C4.83524 14.667 5.16621 12.25 5.16621 12.25C5.16621 12.25 3.6452 18.2204 9.80565 19.3524C20.8925 21.3904 20.9916 27.5068 20.9916 27.5068Z" fill="url(#paint19_linear_2681_7440)"/>
<path d="M5.00052 13.7285C5.15451 14.4035 6.21652 16.4415 13.2299 18.6085C19.1488 20.4375 20.6458 24.6944 21.0048 27.1659C21.0013 27.3839 20.9913 27.5059 20.9913 27.5059C20.9913 27.5059 20.8918 21.3895 9.80494 19.3515C5.61401 18.5819 4.979 15.5729 5.00052 13.7285Z" fill="url(#paint20_linear_2681_7440)"/>
<path d="M20.995 28.0167C20.995 28.0167 21.545 22.1163 15.0211 20.0998C8.49714 18.0853 8.75365 16.2148 8.75365 16.2148C8.75365 16.2148 7.57668 20.8338 12.3426 21.7098C20.9185 23.2853 20.995 28.0167 20.995 28.0167Z" fill="url(#paint21_linear_2681_7440)"/>
<path d="M8.62539 17.3594C8.74441 17.8818 9.56585 19.4578 14.9913 21.1338C19.5698 22.5488 20.7283 25.8428 21.0053 27.7537C21.0032 27.9218 20.9948 28.0162 20.9948 28.0162C20.9948 28.0162 20.9183 23.2848 12.3419 21.7098C9.10038 21.1138 8.60889 18.7868 8.62539 17.3594Z" fill="url(#paint22_linear_2681_7440)"/>
<path d="M20.9971 28.2843C20.9971 28.2843 21.4121 23.8233 16.4806 22.2988C11.5482 20.7743 11.7417 19.3613 11.7417 19.3613C11.7417 19.3613 10.8522 22.8533 14.4552 23.5158C20.9396 24.7073 20.9971 28.2843 20.9971 28.2843Z" fill="url(#paint23_linear_2681_7440)"/>
<path d="M11.6448 20.2266C11.7353 20.6211 12.3558 21.8135 16.4577 23.0801C19.9197 24.1505 20.7952 26.6405 21.0052 28.086C21.0037 28.213 20.9967 28.284 20.9967 28.284C20.9967 28.284 20.9392 24.707 14.4548 23.5156C12.0038 23.0655 11.6328 21.3056 11.6448 20.2266Z" fill="url(#paint24_linear_2681_7440)"/>
</g>
<defs>
<filter id="filter0_i_2681_7440" x="0" y="-2" width="41" height="43" filterUnits="userSpaceOnUse" color-interpolation-filters="sRGB">
<feFlood flood-opacity="0" result="BackgroundImageFix"/>
<feBlend mode="normal" in="SourceGraphic" in2="BackgroundImageFix" result="shape"/>
<feColorMatrix in="SourceAlpha" type="matrix" values="0 0 0 0 0 0 0 0 0 0 0 0 0 0 0 0 0 0 127 0" result="hardAlpha"/>
<feOffset dy="-2"/>
<feGaussianBlur stdDeviation="2"/>
<feComposite in2="hardAlpha" operator="arithmetic" k2="-1" k3="1"/>
<feColorMatrix type="matrix" values="0 0 0 0 0 0 0 0 0 0 0 0 0 0 0 0 0 0 0.25 0"/>
<feBlend mode="normal" in2="shape" result="effect1_innerShadow_2681_7440"/>
</filter>
<linearGradient id="paint0_linear_2681_7440" x1="20.5" y1="-1.74556e-08" x2="19.9143" y2="66.7714" gradientUnits="userSpaceOnUse">
<stop stop-color="#FFC74B"/>
<stop offset="0.459" stop-color="#FFD475"/>
<stop offset="1" stop-color="white"/>
</linearGradient>
<linearGradient id="paint1_linear_2681_7440" x1="32.1489" y1="18.4374" x2="20.6831" y2="29.2092" gradientUnits="userSpaceOnUse">
<stop stop-color="#29D3DA"/>
<stop offset="0.519" stop-color="#0077FF"/>
<stop offset="0.999" stop-color="#064093"/>
<stop offset="1" stop-color="#084698"/>
</linearGradient>
<linearGradient id="paint2_linear_2681_7440" x1="18.8498" y1="31.9114" x2="32.7646" y2="17.9696" gradientUnits="userSpaceOnUse">
<stop stop-color="#29D3DA"/>
<stop offset="0.519" stop-color="#0077FF"/>
<stop offset="0.999" stop-color="#064093"/>
<stop offset="1" stop-color="#084698"/>
</linearGradient>
<linearGradient id="paint3_linear_2681_7440" x1="29.6228" y1="21.2317" x2="20.755" y2="29.5645" gradientUnits="userSpaceOnUse">
<stop stop-color="#29D3DA"/>
<stop offset="0.519" stop-color="#0077FF"/>
<stop offset="0.999" stop-color="#064093"/>
<stop offset="1" stop-color="#084698"/>
</linearGradient>
<linearGradient id="paint4_linear_2681_7440" x1="19.3355" y1="31.6574" x2="30.0979" y2="20.8716" gradientUnits="userSpaceOnUse">
<stop stop-color="#29D3DA"/>
<stop offset="0.519" stop-color="#0077FF"/>
<stop offset="0.999" stop-color="#064093"/>
<stop offset="1" stop-color="#084698"/>
</linearGradient>
<linearGradient id="paint5_linear_2681_7440" x1="27.517" y1="23.4512" x2="20.8096" y2="29.751" gradientUnits="userSpaceOnUse">
<stop stop-color="#29D3DA"/>
<stop offset="0.519" stop-color="#0077FF"/>
<stop offset="0.999" stop-color="#064093"/>
<stop offset="1" stop-color="#084698"/>
</linearGradient>
<linearGradient id="paint6_linear_2681_7440" x1="19.7412" y1="31.3311" x2="27.8761" y2="23.1782" gradientUnits="userSpaceOnUse">
<stop stop-color="#29D3DA"/>
<stop offset="0.519" stop-color="#0077FF"/>
<stop offset="0.999" stop-color="#064093"/>
<stop offset="1" stop-color="#084698"/>
</linearGradient>
<linearGradient id="paint7_linear_2681_7440" x1="36.9902" y1="12.0615" x2="20.5474" y2="27.5083" gradientUnits="userSpaceOnUse">
<stop offset="0.012" stop-color="#E0B386"/>
<stop offset="0.519" stop-color="#DA498C"/>
<stop offset="1" stop-color="#961484"/>
</linearGradient>
<linearGradient id="paint8_linear_2681_7440" x1="17.9205" y1="31.3845" x2="37.8687" y2="11.3888" gradientUnits="userSpaceOnUse">
<stop offset="0.012" stop-color="#E0B386"/>
<stop offset="0.519" stop-color="#DA498C"/>
<stop offset="1" stop-color="#961484"/>
</linearGradient>
<linearGradient id="paint9_linear_2681_7440" x1="33.3654" y1="16.0703" x2="20.6496" y2="28.0186" gradientUnits="userSpaceOnUse">
<stop offset="0.012" stop-color="#E0B386"/>
<stop offset="0.519" stop-color="#DA498C"/>
<stop offset="1" stop-color="#961484"/>
</linearGradient>
<linearGradient id="paint10_linear_2681_7440" x1="18.6171" y1="31.0149" x2="34.0489" y2="15.5497" gradientUnits="userSpaceOnUse">
<stop offset="0.012" stop-color="#E0B386"/>
<stop offset="0.519" stop-color="#DA498C"/>
<stop offset="1" stop-color="#961484"/>
</linearGradient>
<linearGradient id="paint11_linear_2681_7440" x1="30.3501" y1="19.2512" x2="20.7328" y2="28.2861" gradientUnits="userSpaceOnUse">
<stop offset="0.012" stop-color="#E0B386"/>
<stop offset="0.519" stop-color="#DA498C"/>
<stop offset="1" stop-color="#961484"/>
</linearGradient>
<linearGradient id="paint12_linear_2681_7440" x1="19.1959" y1="30.5516" x2="30.8638" y2="18.8603" gradientUnits="userSpaceOnUse">
<stop offset="0.012" stop-color="#E0B386"/>
<stop offset="0.519" stop-color="#DA498C"/>
<stop offset="1" stop-color="#961484"/>
</linearGradient>
<linearGradient id="paint13_linear_2681_7440" x1="9.85168" y1="18.437" x2="21.316" y2="29.2089" gradientUnits="userSpaceOnUse">
<stop stop-color="#29D3DA"/>
<stop offset="0.519" stop-color="#0077FF"/>
<stop offset="0.999" stop-color="#064093"/>
<stop offset="1" stop-color="#084698"/>
</linearGradient>
<linearGradient id="paint14_linear_2681_7440" x1="23.1472" y1="31.9121" x2="9.23642" y2="17.9697" gradientUnits="userSpaceOnUse">
<stop stop-color="#29D3DA"/>
<stop offset="0.519" stop-color="#0077FF"/>
<stop offset="0.999" stop-color="#064093"/>
<stop offset="1" stop-color="#084698"/>
</linearGradient>
<linearGradient id="paint15_linear_2681_7440" x1="12.3774" y1="21.2321" x2="21.2472" y2="29.5655" gradientUnits="userSpaceOnUse">
<stop stop-color="#29D3DA"/>
<stop offset="0.519" stop-color="#0077FF"/>
<stop offset="0.999" stop-color="#064093"/>
<stop offset="1" stop-color="#084698"/>
</linearGradient>
<linearGradient id="paint16_linear_2681_7440" x1="22.6624" y1="31.6574" x2="11.9021" y2="20.8711" gradientUnits="userSpaceOnUse">
<stop stop-color="#29D3DA"/>
<stop offset="0.519" stop-color="#0077FF"/>
<stop offset="0.999" stop-color="#064093"/>
<stop offset="1" stop-color="#084698"/>
</linearGradient>
<linearGradient id="paint17_linear_2681_7440" x1="14.4826" y1="23.4505" x2="21.1885" y2="29.7503" gradientUnits="userSpaceOnUse">
<stop stop-color="#29D3DA"/>
<stop offset="0.519" stop-color="#0077FF"/>
<stop offset="0.999" stop-color="#064093"/>
<stop offset="1" stop-color="#084698"/>
</linearGradient>
<linearGradient id="paint18_linear_2681_7440" x1="22.2599" y1="31.3309" x2="14.1235" y2="23.1771" gradientUnits="userSpaceOnUse">
<stop stop-color="#29D3DA"/>
<stop offset="0.519" stop-color="#0077FF"/>
<stop offset="0.999" stop-color="#064093"/>
<stop offset="1" stop-color="#084698"/>
</linearGradient>
<linearGradient id="paint19_linear_2681_7440" x1="5.01104" y1="12.0616" x2="21.4528" y2="27.5079" gradientUnits="userSpaceOnUse">
<stop offset="0.012" stop-color="#E0B386"/>
<stop offset="0.519" stop-color="#DA498C"/>
<stop offset="1" stop-color="#961484"/>
</linearGradient>
<linearGradient id="paint20_linear_2681_7440" x1="24.0776" y1="31.3849" x2="4.12988" y2="11.3881" gradientUnits="userSpaceOnUse">
<stop offset="0.012" stop-color="#E0B386"/>
<stop offset="0.519" stop-color="#DA498C"/>
<stop offset="1" stop-color="#961484"/>
</linearGradient>
<linearGradient id="paint21_linear_2681_7440" x1="8.63386" y1="16.0696" x2="21.3507" y2="28.0179" gradientUnits="userSpaceOnUse">
<stop offset="0.012" stop-color="#E0B386"/>
<stop offset="0.519" stop-color="#DA498C"/>
<stop offset="1" stop-color="#961484"/>
</linearGradient>
<linearGradient id="paint22_linear_2681_7440" x1="23.3802" y1="31.0151" x2="7.95189" y2="15.5494" gradientUnits="userSpaceOnUse">
<stop offset="0.012" stop-color="#E0B386"/>
<stop offset="0.519" stop-color="#DA498C"/>
<stop offset="1" stop-color="#961484"/>
</linearGradient>
<linearGradient id="paint23_linear_2681_7440" x1="11.651" y1="19.2509" x2="21.2654" y2="28.2857" gradientUnits="userSpaceOnUse">
<stop offset="0.012" stop-color="#E0B386"/>
<stop offset="0.519" stop-color="#DA498C"/>
<stop offset="1" stop-color="#961484"/>
</linearGradient>
<linearGradient id="paint24_linear_2681_7440" x1="22.7993" y1="30.5522" x2="11.135" y2="18.8564" gradientUnits="userSpaceOnUse">
<stop offset="0.012" stop-color="#E0B386"/>
<stop offset="0.519" stop-color="#DA498C"/>
<stop offset="1" stop-color="#961484"/>
</linearGradient>
<clipPath id="clip0_2681_7440">
<rect width="32" height="32" fill="white" transform="translate(5 5)"/>
</clipPath>
</defs>
</svg>
